<svg xmlns="http://www.w3.org/2000/svg" width="100" height="100" fill="none"><path fill="#fff" d="m40.087 47.49-9.209 9.248a1.754 1.754 0 0 0 0 2.492c.334.334.796.514 1.231.514.462 0 .898-.18 1.257-.514l9.209-9.248a1.754 1.754 0 0 0 0-2.491 1.795 1.795 0 0 0-2.488 0Zm34.162 9.942L54.806 37.807l2.77-2.8c2.488 1.49 5.669 1.696 7.156 1.696.36 0 .616-.026.744-.026.487-.026.95-.283 1.283-.668l7.592-9.71a1.755 1.755 0 0 0-.282-2.466 1.749 1.749 0 0 0-2.463.283l-7.105 9.067c-1.128-.025-2.873-.205-4.309-.796l10.08-10.07a1.802 1.802 0 0 0 0-2.491 1.795 1.795 0 0 0-2.487 0L57.704 29.92c-.564-1.413-.744-3.16-.77-4.316l9.209-7.09a1.76 1.76 0 0 0 .333-2.465c-.615-.77-1.718-.925-2.488-.334l-9.875 7.629c-.385.308-.641.77-.667 1.284-.026.54-.205 4.804 1.667 7.912l-2.795 2.774-19.238-19.42a1.707 1.707 0 0 0-1.231-.539c-.462 0-.924.206-1.257.514l-.257.283a1.854 1.854 0 0 0-.513 1.078 25.17 25.17 0 0 0-.051 1.619c.026 5.856 2.924 12.69 8.618 20.344 4.13 5.6 8.234 9.505 8.388 9.684.385.334.898.514 1.41.463l3.464-.386c.974-.128 1.667-.976 1.564-1.952-.128-.976-1-1.67-1.95-1.541l-2.641.282C45.982 43.1 35.132 31.616 33.49 21.29l38.27 38.634c.334.334.796.514 1.257.514.436 0 .872-.18 1.232-.514a1.754 1.754 0 0 0 0-2.492Z"/><path fill="#fff" d="M28.364 62.62c-.384 0-.743-.154-1.051-.41a34.138 34.138 0 0 1-11.184-25.226C16.13 18.233 31.34 3 50.065 3 68.789 3 84 18.233 84 36.984c0 8.092-3.437 16.286-9.696 23.042-.59.642-1.59.668-2.231.077a1.608 1.608 0 0 1-.077-2.235c5.72-6.165 8.875-13.588 8.875-20.884 0-17.005-13.826-30.85-30.806-30.85s-30.806 13.845-30.806 30.85a30.96 30.96 0 0 0 10.157 22.888c.641.59.693 1.567.103 2.21a1.495 1.495 0 0 1-1.154.538ZM15.679 77.298h-4.606a3.105 3.105 0 0 0-.261-1.034 2.333 2.333 0 0 0-.572-.797 2.386 2.386 0 0 0-.874-.52 3.4 3.4 0 0 0-1.167-.188c-.763 0-1.408.184-1.936.553-.522.37-.92.898-1.192 1.587-.267.689-.4 1.516-.4 2.481 0 1.02.136 1.875.408 2.564.278.683.678 1.198 1.2 1.546.523.341 1.152.512 1.887.512.42 0 .795-.051 1.127-.154.332-.109.62-.264.865-.464.245-.201.444-.442.597-.724a2.91 2.91 0 0 0 .318-.969l4.606.033c-.055.705-.254 1.424-.597 2.156-.343.727-.83 1.4-1.461 2.018-.626.613-1.402 1.106-2.328 1.48-.925.375-2 .562-3.225.562-1.535 0-2.913-.328-4.132-.984-1.214-.657-2.175-1.622-2.883-2.897C.351 82.784 0 81.225 0 79.381c0-1.856.36-3.418 1.078-4.687.718-1.275 1.688-2.238 2.907-2.889 1.22-.656 2.58-.984 4.083-.984 1.056 0 2.028.144 2.915.431a7.022 7.022 0 0 1 2.336 1.261 6.232 6.232 0 0 1 1.616 2.026c.409.803.656 1.722.744 2.759Zm6.632 3.384v7.03h-4.507V71.05h4.344v6.541h.13c.284-.797.755-1.418 1.413-1.863.66-.45 1.451-.675 2.377-.675.887 0 1.657.2 2.31.602a4.06 4.06 0 0 1 1.528 1.66c.364.705.544 1.513.539 2.425v7.973h-4.508v-7.03c.005-.618-.15-1.103-.465-1.456-.31-.353-.754-.529-1.332-.529a1.87 1.87 0 0 0-.963.244 1.618 1.618 0 0 0-.637.684c-.147.293-.223.645-.229 1.057ZM38.68 87.94c-1.34 0-2.493-.255-3.462-.765a5.369 5.369 0 0 1-2.23-2.213c-.517-.965-.775-2.12-.775-3.466 0-1.291.26-2.42.783-3.385a5.592 5.592 0 0 1 2.213-2.254c.953-.537 2.077-.805 3.373-.805.947 0 1.805.146 2.572.44a5.392 5.392 0 0 1 1.968 1.277 5.624 5.624 0 0 1 1.258 2.018c.294.791.44 1.684.44 2.676v1.042H33.618v-2.474h7.056a1.719 1.719 0 0 0-.278-.943 1.767 1.767 0 0 0-.71-.643 2.096 2.096 0 0 0-1.005-.236c-.365 0-.7.078-1.004.236a1.89 1.89 0 0 0-.735.635c-.18.27-.275.588-.286.951v2.67c0 .4.084.759.253 1.073.169.315.411.562.727.74.316.18.697.27 1.143.27.31 0 .593-.044.85-.131.26-.087.484-.212.669-.374a1.52 1.52 0 0 0 .408-.602h4.116a4.664 4.664 0 0 1-1.005 2.262c-.528.634-1.227 1.128-2.098 1.48-.866.348-1.879.521-3.038.521Zm15.493-12.725v3.254h-8.395v-3.254h8.395Zm-6.794 12.497V74.857c0-1.031.185-1.885.555-2.563a3.563 3.563 0 0 1 1.568-1.522c.675-.336 1.47-.504 2.384-.504.572 0 1.127.043 1.666.13.545.087.947.163 1.209.228l-.654 3.222a3.531 3.531 0 0 0-.571-.114 3.925 3.925 0 0 0-.572-.05c-.424 0-.71.09-.857.27-.147.178-.22.414-.22.707v13.051h-4.508Zm16.046-12.497v3.254H55.03v-3.254h8.395ZM56.63 87.712V74.857c0-1.031.185-1.885.555-2.563a3.563 3.563 0 0 1 1.568-1.522c.675-.336 1.47-.504 2.384-.504.572 0 1.127.043 1.666.13.545.087.947.163 1.209.228l-.654 3.222a3.53 3.53 0 0 0-.571-.114 3.922 3.922 0 0 0-.572-.05c-.424 0-.71.09-.857.27-.147.178-.22.414-.22.707v13.051H56.63Zm14.163.228c-1.34 0-2.494-.255-3.463-.765a5.37 5.37 0 0 1-2.23-2.213c-.516-.965-.775-2.12-.775-3.466 0-1.291.261-2.42.784-3.385a5.592 5.592 0 0 1 2.213-2.254c.953-.537 2.077-.805 3.373-.805.947 0 1.804.146 2.572.44a5.392 5.392 0 0 1 1.968 1.277 5.622 5.622 0 0 1 1.257 2.018c.294.791.441 1.684.441 2.676v1.042H65.73v-2.474h7.055a1.719 1.719 0 0 0-.278-.943 1.767 1.767 0 0 0-.71-.643 2.096 2.096 0 0 0-1.004-.236c-.365 0-.7.078-1.005.236a1.89 1.89 0 0 0-.735.635c-.18.27-.275.588-.286.951v2.67c0 .4.085.759.254 1.073.168.315.41.562.726.74.316.18.697.27 1.144.27.31 0 .593-.044.849-.131a1.94 1.94 0 0 0 .67-.374 1.52 1.52 0 0 0 .408-.602h4.115a4.665 4.665 0 0 1-1.004 2.262c-.528.634-1.228 1.128-2.099 1.48-.865.348-1.878.521-3.037.521Zm19.445-8.657h-4.149a1.135 1.135 0 0 0-.27-.66 1.513 1.513 0 0 0-.612-.422 2.087 2.087 0 0 0-.816-.155c-.387 0-.719.07-.996.212-.278.14-.414.341-.409.602-.005.184.074.355.237.512.169.158.493.28.972.367l2.548.455c1.284.233 2.24.627 2.866 1.18.631.548.95 1.283.955 2.205-.005.89-.272 1.663-.8 2.319-.523.65-1.239 1.155-2.148 1.513-.903.353-1.935.53-3.094.53-1.917 0-3.417-.391-4.5-1.172-1.078-.782-1.68-1.812-1.805-3.092h4.475c.06.396.256.702.588.92.338.21.762.316 1.274.316.414 0 .754-.07 1.02-.211.273-.141.412-.342.417-.602-.005-.239-.125-.429-.359-.57-.229-.14-.588-.255-1.078-.342l-2.221-.39c-1.28-.222-2.237-.646-2.874-1.27-.637-.623-.953-1.426-.948-2.408-.005-.868.224-1.603.686-2.205.468-.607 1.135-1.069 2-1.383.872-.32 1.904-.48 3.096-.48 1.813 0 3.242.374 4.287 1.123 1.05.748 1.603 1.784 1.658 3.108Zm9.533-4.068v3.254h-8.264v-3.254h8.264Zm-6.663-2.995h4.507v11.473c0 .174.03.32.09.44.06.113.153.2.278.26.125.054.286.081.482.081.136 0 .294-.016.473-.049.186-.032.322-.06.409-.081L100 87.5c-.201.06-.49.133-.866.22a7.65 7.65 0 0 1-1.323.17c-1.034.055-1.902-.051-2.604-.317-.703-.271-1.23-.697-1.585-1.277-.353-.58-.525-1.308-.514-2.181V72.22ZM50.42 93.55H2.8a.708.708 0 0 1-.7-.7c0-.386.322-.702.7-.702h47.62c.392 0 .7.316.7.701a.698.698 0 0 1-.7.701Zm.001 3.367H40.057a.707.707 0 0 1-.7-.708c0-.382.322-.695.7-.695h10.364c.392 0 .7.313.7.695a.698.698 0 0 1-.7.708Zm2.661-.065v-4.45h2.976v.776h-2.026v1.06h1.829v.776h-1.828v1.838h-.95Zm4.518.063a1.42 1.42 0 0 1-.576-.111.924.924 0 0 1-.4-.333.988.988 0 0 1-.144-.552c0-.185.034-.34.103-.467a.83.83 0 0 1 .281-.304 1.39 1.39 0 0 1 .404-.173c.152-.04.312-.067.478-.083.196-.02.354-.04.474-.057a.676.676 0 0 0 .262-.082.181.181 0 0 0 .08-.16v-.014a.398.398 0 0 0-.13-.32c-.087-.075-.21-.112-.37-.112a.659.659 0 0 0-.401.11.51.51 0 0 0-.198.274l-.865-.07c.044-.202.13-.377.26-.525.128-.15.294-.264.498-.343.204-.081.441-.122.71-.122.188 0 .367.022.538.065.173.044.326.111.46.202.134.091.24.209.318.352.077.142.116.312.116.51v2.252h-.887v-.463h-.026a.944.944 0 0 1-.545.46 1.366 1.366 0 0 1-.44.066Zm.267-.64a.794.794 0 0 0 .364-.08.644.644 0 0 0 .248-.221.567.567 0 0 0 .09-.315v-.354a.504.504 0 0 1-.12.052c-.05.014-.106.028-.17.041a8.375 8.375 0 0 1-.36.057c-.109.016-.205.04-.287.076a.46.46 0 0 0-.19.14.342.342 0 0 0-.069.218c0 .126.046.222.139.29a.608.608 0 0 0 .355.097Zm5.161-1.809-.856.052a.435.435 0 0 0-.094-.195.5.5 0 0 0-.191-.141.655.655 0 0 0-.279-.055.69.69 0 0 0-.366.091c-.1.06-.15.14-.15.24 0 .08.033.146.097.201.064.055.175.1.331.133l.61.122c.328.066.573.173.734.321a.753.753 0 0 1 .241.582c0 .22-.065.411-.195.576a1.267 1.267 0 0 1-.531.387 2.041 2.041 0 0 1-.775.137c-.447 0-.802-.092-1.067-.276a1.073 1.073 0 0 1-.463-.756l.92-.048a.467.467 0 0 0 .202.308.74.74 0 0 0 .41.105.737.737 0 0 0 .395-.094c.101-.063.152-.145.154-.245a.255.255 0 0 0-.108-.207.776.776 0 0 0-.325-.126l-.584-.115c-.329-.065-.574-.178-.735-.339a.836.836 0 0 1-.239-.614c0-.215.058-.4.176-.555a1.13 1.13 0 0 1 .498-.358 2.07 2.07 0 0 1 .755-.126c.426 0 .76.09 1.005.267.246.178.39.421.43.728Zm2.459-.952v.696h-2.03v-.695h2.03Zm-1.57-.799h.936v3.111a.41.41 0 0 0 .04.2.218.218 0 0 0 .11.098.458.458 0 0 0 .166.028.802.802 0 0 0 .132-.01c.043-.01.077-.016.1-.02l.148.688a2.682 2.682 0 0 1-.198.05c-.085.02-.188.033-.31.037a1.433 1.433 0 0 1-.592-.089.825.825 0 0 1-.393-.317.961.961 0 0 1-.138-.543v-3.233Zm5.423.799v.696h-2.081v-.695h2.08Zm-1.605 3.338v-3.579c0-.242.048-.442.143-.602a.913.913 0 0 1 .395-.358c.167-.08.356-.12.569-.12a2.59 2.59 0 0 1 .66.092l-.167.695a1.194 1.194 0 0 0-.298-.048c-.138 0-.234.032-.288.096a.388.388 0 0 0-.08.263v3.56h-.934Zm3.579.065a1.74 1.74 0 0 1-.885-.215 1.479 1.479 0 0 1-.573-.604 1.93 1.93 0 0 1-.202-.902c0-.345.068-.646.202-.904a1.47 1.47 0 0 1 .573-.604c.249-.145.544-.217.885-.217.34 0 .635.072.882.217.249.144.44.345.575.604.135.258.202.56.202.904 0 .342-.067.642-.202.902a1.475 1.475 0 0 1-.575.604 1.73 1.73 0 0 1-.882.215Zm.004-.717a.585.585 0 0 0 .388-.13.806.806 0 0 0 .235-.361c.054-.152.081-.325.081-.52 0-.193-.027-.367-.08-.519a.806.806 0 0 0-.236-.36.579.579 0 0 0-.388-.133.599.599 0 0 0-.395.133.814.814 0 0 0-.24.36 1.582 1.582 0 0 0-.078.52c0 .194.026.367.079.519a.814.814 0 0 0 .239.36c.107.087.238.13.395.13Zm3.786.717a1.75 1.75 0 0 1-.885-.215 1.479 1.479 0 0 1-.572-.604 1.93 1.93 0 0 1-.202-.902c0-.345.067-.646.202-.904.134-.259.325-.46.572-.604a1.73 1.73 0 0 1 .885-.217c.341 0 .635.072.882.217.25.144.44.345.575.604.135.258.202.56.202.904 0 .342-.067.642-.202.902a1.468 1.468 0 0 1-.575.604 1.729 1.729 0 0 1-.882.215Zm.005-.717a.585.585 0 0 0 .388-.13.807.807 0 0 0 .235-.361c.054-.152.081-.325.081-.52a1.55 1.55 0 0 0-.081-.519.807.807 0 0 0-.235-.36.579.579 0 0 0-.388-.133.599.599 0 0 0-.396.133.813.813 0 0 0-.239.36c-.053.152-.079.326-.079.52s.026.367.08.519a.813.813 0 0 0 .238.36c.107.087.239.13.396.13Zm3.505.706c-.256 0-.488-.065-.696-.196a1.36 1.36 0 0 1-.492-.58c-.12-.256-.18-.57-.18-.943 0-.382.063-.7.187-.953a1.33 1.33 0 0 1 .496-.572c.208-.127.435-.191.683-.191.188 0 .346.032.471.096.128.062.23.14.308.234.079.093.139.184.18.274h.028v-1.673h.933v4.45h-.922v-.535h-.04a1.19 1.19 0 0 1-.186.276.926.926 0 0 1-.31.224 1.06 1.06 0 0 1-.46.089Zm.296-.737c.15 0 .278-.04.382-.121a.77.77 0 0 0 .241-.346c.058-.147.086-.32.086-.519 0-.198-.028-.37-.083-.517a.743.743 0 0 0-.242-.339.619.619 0 0 0-.384-.12.61.61 0 0 0-.388.124.757.757 0 0 0-.24.344 1.461 1.461 0 0 0-.08.508c0 .194.026.366.08.515a.794.794 0 0 0 .24.348.61.61 0 0 0 .388.123Zm5.2.748a1.82 1.82 0 0 1-.804-.165 1.258 1.258 0 0 1-.52-.448c-.12-.19-.18-.401-.18-.634 0-.174.035-.328.106-.463.07-.135.168-.259.294-.372a3.93 3.93 0 0 1 .439-.34l.871-.568a.82.82 0 0 0 .248-.224.46.46 0 0 0 .08-.258.35.35 0 0 0-.108-.245c-.072-.076-.174-.113-.305-.111a.431.431 0 0 0-.38.208.401.401 0 0 0-.053.204c0 .093.026.187.08.283.052.095.122.197.21.304l.287.343 2.132 2.42h-.975l-1.778-1.96c-.117-.13-.234-.269-.351-.412a2.382 2.382 0 0 1-.29-.46 1.226 1.226 0 0 1-.116-.533c0-.216.05-.41.151-.582.103-.172.246-.308.43-.408.185-.102.4-.152.646-.152.24 0 .447.048.621.145a1.024 1.024 0 0 1 .547.904c0 .21-.053.4-.158.571a1.57 1.57 0 0 1-.44.457l-.917.653a1.05 1.05 0 0 0-.276.276.503.503 0 0 0-.01.552c.053.084.128.15.225.2.096.048.21.072.34.072a1.1 1.1 0 0 0 .467-.107c.155-.072.296-.174.422-.306a1.53 1.53 0 0 0 .419-1.08h.775c0 .273-.03.518-.09.737-.06.217-.144.407-.25.569-.107.16-.23.293-.367.395a7.804 7.804 0 0 1-.127.078l-.128.079c-.166.133-.353.23-.56.289-.204.06-.407.089-.607.089Zm7.215-3.077a.97.97 0 0 0-.13-.28.877.877 0 0 0-.476-.341c-.1-.03-.213-.046-.336-.046-.23 0-.431.057-.605.17a1.113 1.113 0 0 0-.404.493 1.912 1.912 0 0 0-.145.787c0 .31.047.573.142.79.096.218.23.383.404.498.174.113.38.17.617.17.215 0 .399-.038.551-.114a.815.815 0 0 0 .351-.323.954.954 0 0 0 .123-.494l.193.029h-1.159v-.709h1.881v.561c0 .391-.083.727-.25 1.008-.167.28-.396.495-.689.647a2.162 2.162 0 0 1-1.005.226c-.422 0-.792-.092-1.11-.276a1.923 1.923 0 0 1-.747-.788c-.177-.342-.266-.748-.266-1.217 0-.36.053-.682.158-.964.107-.284.256-.525.448-.722a1.94 1.94 0 0 1 .67-.45 2.2 2.2 0 0 1 .827-.154c.255 0 .492.037.711.111a1.9 1.9 0 0 1 .584.309 1.637 1.637 0 0 1 .628 1.079h-.966Zm1.704 3.012v-3.338h.906v.583h.035a.86.86 0 0 1 .31-.47.82.82 0 0 1 .5-.16 1.428 1.428 0 0 1 .294.032v.822a1.644 1.644 0 0 0-.395-.05c-.137 0-.26.03-.368.089a.66.66 0 0 0-.347.604v1.888h-.935Zm2.529 0v-3.338h.935v3.338h-.935Zm.47-3.768a.511.511 0 0 1-.358-.136.442.442 0 0 1 0-.661c.1-.093.218-.14.358-.14.138 0 .257.047.355.14a.438.438 0 0 1 0 .66.503.503 0 0 1-.355.137Zm2.149-.682v4.45h-.935v-4.45h.935Zm1.683 0v4.45h-.934v-4.45h.935Z"/></svg>